<svg xmlns="http://www.w3.org/2000/svg" xmlns:xlink="http://www.w3.org/1999/xlink" width="500" zoomAndPan="magnify" viewBox="0 0 375 374.999991" height="500" preserveAspectRatio="xMidYMid meet" version="1.2"><defs><clipPath id="8df8dd3272"><path d="M 43.4375 53.703125 L 331.4375 53.703125 L 331.4375 321.453125 L 43.4375 321.453125 Z M 43.4375 53.703125 "/></clipPath></defs><g id="e877c6b11e"><rect x="0" width="375" y="0" height="374.999991" style="fill:#ffffff;fill-opacity:1;stroke:none;"/><rect x="0" width="375" y="0" height="374.999991" style="fill:#ffffff;fill-opacity:1;stroke:none;"/><g clip-rule="nonzero" clip-path="url(#8df8dd3272)"><path style=" stroke:none;fill-rule:nonzero;fill:#bdb6b6;fill-opacity:1;" d="M 311.015625 187.429688 C 311.015625 205.476562 307.480469 222.992188 300.503906 239.480469 C 296.644531 248.613281 291.824219 257.207031 286.097656 265.199219 L 275.035156 256.554688 C 280.007812 249.542969 284.210938 242.003906 287.585938 234.019531 C 293.828125 219.265625 296.988281 203.589844 296.988281 187.429688 C 296.988281 171.269531 293.828125 155.59375 287.585938 140.839844 C 281.558594 126.582031 272.929688 113.78125 261.933594 102.785156 C 260.394531 101.25 258.816406 99.761719 257.210938 98.316406 C 252.789062 94.34375 248.109375 90.722656 243.1875 87.472656 C 237.105469 83.453125 230.65625 80 223.882812 77.132812 C 209.125 70.890625 193.449219 67.726562 177.289062 67.726562 C 161.128906 67.726562 145.453125 70.886719 130.699219 77.125 C 117.085938 82.878906 104.800781 91.019531 94.148438 101.3125 L 243.195312 214.304688 L 243.195312 115.066406 L 257.21875 115.066406 L 257.21875 242.539062 L 84.59375 111.671875 C 84.753906 111.480469 84.910156 111.289062 85.070312 111.101562 C 84.910156 111.292969 84.753906 111.488281 84.59375 111.671875 L 73.414062 103.203125 C 76.328125 99.621094 79.429688 96.171875 82.730469 92.871094 C 82.765625 92.832031 82.808594 92.796875 82.847656 92.753906 C 95.101562 80.53125 109.363281 70.925781 125.238281 64.214844 C 141.726562 57.238281 159.242188 53.703125 177.289062 53.703125 C 195.335938 53.703125 212.855469 57.238281 229.339844 64.214844 C 234.101562 66.230469 238.726562 68.507812 243.1875 71.03125 C 248.054688 73.789062 252.734375 76.839844 257.210938 80.1875 C 262.359375 84.039062 267.242188 88.269531 271.847656 92.867188 C 284.128906 105.148438 293.769531 119.445312 300.503906 135.371094 C 307.480469 151.863281 311.015625 169.382812 311.015625 187.429688 Z M 242.703125 287.699219 C 236.761719 291.582031 230.480469 294.941406 223.878906 297.726562 C 209.125 303.96875 193.449219 307.128906 177.289062 307.128906 C 161.128906 307.128906 145.453125 303.960938 130.699219 297.726562 C 123.859375 294.828125 117.34375 291.335938 111.207031 287.261719 C 106.289062 284.003906 101.609375 280.367188 97.1875 276.378906 C 95.644531 274.980469 94.128906 273.550781 92.648438 272.066406 C 81.652344 261.070312 73.019531 248.269531 66.992188 234.019531 C 60.75 219.265625 57.585938 203.589844 57.585938 187.429688 C 57.585938 171.269531 60.75 155.59375 66.984375 140.839844 C 69.234375 135.523438 71.847656 130.410156 74.808594 125.515625 L 63.484375 117.152344 C 59.898438 122.957031 56.753906 129.03125 54.074219 135.371094 C 47.101562 151.863281 43.5625 169.382812 43.5625 187.429688 C 43.5625 205.476562 47.101562 222.992188 54.074219 239.480469 C 60.808594 255.410156 70.449219 269.707031 82.730469 281.988281 C 87.277344 286.53125 92.101562 290.722656 97.1875 294.53125 C 101.667969 297.890625 106.34375 300.957031 111.207031 303.722656 C 115.730469 306.292969 120.40625 308.601562 125.238281 310.644531 C 141.726562 317.621094 159.242188 321.15625 177.289062 321.15625 C 195.335938 321.15625 212.855469 317.617188 229.339844 310.644531 C 238.105469 306.941406 246.371094 302.355469 254.085938 296.933594 Z M 276.183594 277.445312 L 264.953125 268.941406 L 97.1875 141.757812 L 97.1875 255.59375 L 111.207031 255.59375 L 111.207031 169.984375 L 254.6875 278.757812 L 266.105469 287.410156 L 308.117188 319.257812 L 331.332031 319.257812 Z M 84.59375 111.671875 C 84.753906 111.480469 84.910156 111.289062 85.070312 111.101562 C 84.910156 111.292969 84.753906 111.488281 84.59375 111.671875 Z M 84.59375 111.671875 C 84.753906 111.480469 84.910156 111.289062 85.070312 111.101562 C 84.910156 111.292969 84.753906 111.488281 84.59375 111.671875 Z M 84.59375 111.671875 "/></g></g></svg>