<svg xmlns="http://www.w3.org/2000/svg" xmlns:xlink="http://www.w3.org/1999/xlink" width="500" zoomAndPan="magnify" viewBox="0 0 375 374.999991" height="500" preserveAspectRatio="xMidYMid meet" version="1.2"><defs><clipPath id="6aebfdeef7"><path d="M 140.199219 143.570312 L 234.699219 143.570312 L 234.699219 231.320312 L 140.199219 231.320312 Z M 140.199219 143.570312 "/></clipPath></defs><g id="87b77cc4cc"><g clip-rule="nonzero" clip-path="url(#6aebfdeef7)"><path style=" stroke:none;fill-rule:nonzero;fill:#bdb6b6;fill-opacity:1;" d="M 227.980469 187.441406 C 227.980469 193.363281 226.824219 199.109375 224.535156 204.519531 C 223.265625 207.515625 221.6875 210.332031 219.808594 212.957031 L 216.179688 210.117188 C 217.808594 207.820312 219.1875 205.347656 220.296875 202.726562 C 222.34375 197.886719 223.378906 192.742188 223.378906 187.441406 C 223.378906 182.140625 222.34375 176.996094 220.296875 172.15625 C 218.316406 167.480469 215.488281 163.28125 211.878906 159.671875 C 211.375 159.167969 210.859375 158.679688 210.332031 158.207031 C 208.878906 156.902344 207.34375 155.714844 205.730469 154.648438 C 203.734375 153.332031 201.617188 152.199219 199.398438 151.257812 C 194.554688 149.210938 189.414062 148.171875 184.109375 148.171875 C 178.808594 148.171875 173.667969 149.207031 168.828125 151.253906 C 164.359375 153.144531 160.328125 155.8125 156.835938 159.191406 L 205.730469 196.257812 L 205.730469 163.703125 L 210.332031 163.703125 L 210.332031 205.519531 L 153.703125 162.589844 C 153.753906 162.527344 153.804688 162.460938 153.855469 162.402344 C 153.804688 162.464844 153.753906 162.527344 153.703125 162.589844 L 150.03125 159.808594 C 150.988281 158.632812 152.007812 157.503906 153.089844 156.421875 C 153.101562 156.40625 153.113281 156.394531 153.128906 156.382812 C 157.148438 152.371094 161.828125 149.222656 167.035156 147.019531 C 172.445312 144.730469 178.191406 143.570312 184.109375 143.570312 C 190.03125 143.570312 195.777344 144.730469 201.1875 147.019531 C 202.75 147.679688 204.265625 148.425781 205.730469 149.253906 C 207.328125 150.160156 208.863281 151.160156 210.332031 152.257812 C 212.019531 153.523438 213.621094 154.910156 215.132812 156.417969 C 219.160156 160.449219 222.324219 165.136719 224.535156 170.363281 C 226.824219 175.773438 227.980469 181.519531 227.980469 187.441406 Z M 205.570312 220.335938 C 203.621094 221.609375 201.5625 222.710938 199.394531 223.625 C 194.554688 225.671875 189.414062 226.710938 184.109375 226.710938 C 178.808594 226.710938 173.667969 225.671875 168.828125 223.625 C 166.582031 222.675781 164.445312 221.53125 162.433594 220.195312 C 160.820312 219.125 159.28125 217.933594 157.832031 216.621094 C 157.324219 216.164062 156.828125 215.695312 156.34375 215.207031 C 152.734375 211.601562 149.90625 207.402344 147.925781 202.726562 C 145.878906 197.886719 144.839844 192.742188 144.839844 187.441406 C 144.839844 182.140625 145.878906 176.996094 147.925781 172.15625 C 148.664062 170.414062 149.519531 168.734375 150.492188 167.128906 L 146.777344 164.386719 C 145.597656 166.289062 144.566406 168.285156 143.6875 170.363281 C 141.402344 175.773438 140.238281 181.519531 140.238281 187.441406 C 140.238281 193.363281 141.402344 199.109375 143.6875 204.519531 C 145.898438 209.742188 149.0625 214.433594 153.089844 218.460938 C 154.582031 219.953125 156.164062 221.328125 157.832031 222.578125 C 159.300781 223.679688 160.835938 224.6875 162.433594 225.59375 C 163.914062 226.4375 165.449219 227.195312 167.035156 227.863281 C 172.445312 230.152344 178.191406 231.3125 184.109375 231.3125 C 190.03125 231.3125 195.777344 230.152344 201.1875 227.863281 C 204.0625 226.648438 206.773438 225.144531 209.304688 223.367188 Z M 216.554688 216.972656 L 212.871094 214.183594 L 157.832031 172.457031 L 157.832031 209.804688 L 162.433594 209.804688 L 162.433594 181.71875 L 209.503906 217.402344 L 213.246094 220.242188 L 227.03125 230.691406 L 234.648438 230.691406 Z M 153.703125 162.589844 C 153.753906 162.527344 153.804688 162.460938 153.855469 162.402344 C 153.804688 162.464844 153.753906 162.527344 153.703125 162.589844 Z M 153.703125 162.589844 C 153.753906 162.527344 153.804688 162.460938 153.855469 162.402344 C 153.804688 162.464844 153.753906 162.527344 153.703125 162.589844 Z M 153.703125 162.589844 "/></g></g></svg>